# xmcd
#
# Track frame offsets: 
#        150
#        18200
#        33193
#        52577
#        72012
#        86535
#        106631
#        121078
#        137157
#        151048
#        173114
#        202961
#
# Disc length: 3867 seconds
#
# Revision: 0
# Processed by: cddbd v1.5.2PL0 Copyright (c) Steve Scherf et al.
# Submitted via: ExactAudioCopyFreeDBPlugin 1.0
#
DISCID=7e0f190c
DTITLE=Out Of Office - White Collar Blues
DYEAR=2010
DGENRE=Blues
TTITLE0=Hammastega
TTITLE1=Where Is Love
TTITLE2=Suurlinna Tänavail
TTITLE3=Amazes Me
TTITLE4=Valguskiir
TTITLE5=Öö Klubis
TTITLE6=Valge Pluus
TTITLE7=Hulkur
TTITLE8=I'm Gonna Rock You
TTITLE9=Las Minna
TTITLE10=Ärapanija
TTITLE11=Boonusvideod
EXTD=
EXTT0=
EXTT1=
EXTT2=
EXTT3=
EXTT4=
EXTT5=
EXTT6=
EXTT7=
EXTT8=
EXTT9=
EXTT10=
EXTT11=
PLAYORDER=
